<?xml version="1.0" standalone="no"?>
<!DOCTYPE svg PUBLIC "-//W3C//DTD SVG 20010904//EN"
 "http://www.w3.org/TR/2001/REC-SVG-20010904/DTD/svg10.dtd">
<svg version="1.0" xmlns="http://www.w3.org/2000/svg"
 width="1062.000000pt" height="1062.000000pt" viewBox="0 0 1062.000000 1062.000000"
 preserveAspectRatio="xMidYMid meet">
<metadata>
Created by potrace 1.11, written by Peter Selinger 2001-2013
</metadata>
<g transform="translate(0.000000,1062.000000) scale(0.100000,-0.100000)"
fill="#000000" stroke="none">
<path d="M5157 10173 c-14 -21 -94 -139 -179 -263 -85 -124 -199 -290 -253
-370 -54 -80 -116 -168 -137 -197 -21 -29 -38 -55 -38 -58 0 -5 -79 -118 -100
-142 -5 -7 -10 -16 -10 -22 0 -5 -3 -11 -7 -13 -5 -1 -35 -43 -68 -93 -33 -49
-62 -92 -65 -95 -14 -14 -50 -70 -50 -79 0 -5 -4 -11 -8 -13 -5 -1 -57 -75
-117 -163 -60 -88 -127 -187 -150 -220 -23 -33 -80 -116 -127 -185 l-86 -125
39 -55 c21 -30 44 -61 51 -69 6 -8 27 -37 46 -65 20 -28 38 -53 41 -56 3 -3
30 -41 60 -85 30 -44 57 -82 60 -85 3 -3 11 -13 16 -22 6 -9 30 -45 54 -80 24
-35 58 -83 75 -108 17 -25 34 -46 39 -48 4 -2 7 -7 7 -12 0 -5 50 -81 110
-169 61 -89 110 -165 110 -170 0 -5 3 -11 8 -13 10 -4 132 -187 132 -199 0 -5
4 -9 8 -9 5 0 15 -12 23 -27 8 -16 16 -30 19 -33 14 -14 70 -102 70 -110 0 -6
4 -10 9 -10 5 0 14 -13 21 -30 7 -16 16 -30 21 -30 5 0 9 -6 9 -13 0 -7 9 -23
20 -35 11 -12 20 -24 20 -27 0 -3 32 -53 70 -110 39 -57 70 -108 70 -113 0 -5
9 -17 20 -27 11 -10 20 -24 20 -30 0 -7 7 -19 16 -26 9 -7 20 -22 25 -34 5
-11 36 -60 69 -110 33 -49 63 -96 67 -103 3 -8 38 -63 77 -122 39 -60 87 -135
107 -167 40 -63 226 -358 246 -389 7 -10 25 -40 40 -66 16 -27 31 -48 36 -48
4 0 7 -4 7 -10 0 -9 82 -141 207 -333 36 -54 78 -124 95 -155 17 -31 34 -59
38 -62 8 -7 102 -197 102 -207 0 -4 5 -15 12 -23 35 -42 158 -393 191 -550 2
-8 8 -35 13 -60 10 -40 16 -75 28 -160 27 -183 32 -480 10 -640 -11 -77 -18
-124 -23 -145 -2 -11 -6 -33 -9 -50 -8 -49 -12 -54 -36 -50 -26 5 -101 15
-138 19 -14 2 -38 6 -55 9 -16 4 -43 9 -60 12 -101 17 -264 56 -395 95 -58 17
-109 32 -115 34 -12 4 -44 15 -70 26 -11 4 -58 23 -105 41 -132 50 -238 99
-395 183 -87 47 -249 148 -253 158 -2 4 -8 8 -14 8 -11 0 -216 156 -293 222
-57 49 -230 222 -290 288 -80 90 -252 320 -238 320 3 0 -1 8 -9 18 -15 17 -66
119 -108 215 -28 65 -98 274 -105 316 -3 19 -8 38 -11 43 -5 8 -12 33 -21 78
-2 14 -7 32 -10 40 -3 8 -8 24 -10 35 -1 11 -12 61 -23 110 -17 78 -22 107
-35 185 -1 8 -5 31 -9 50 -11 64 -19 117 -31 205 -2 17 -4 30 -5 30 -1 0 -3
16 -5 35 -2 19 -6 58 -10 85 -3 28 -8 75 -11 105 -3 30 -7 69 -9 85 -8 70 -26
276 -30 350 -1 28 -6 111 -11 185 -4 74 -8 170 -8 213 0 42 -3 77 -6 77 -3 0
-5 211 -5 469 0 356 -2 465 -11 452 -14 -19 -51 -83 -75 -129 -10 -18 -22 -38
-27 -45 -9 -11 -62 -109 -128 -237 -16 -30 -32 -57 -35 -60 -3 -3 -12 -18 -21
-35 -8 -16 -40 -77 -71 -135 -30 -58 -72 -136 -92 -175 -21 -38 -47 -88 -60
-110 -12 -22 -45 -83 -73 -136 -28 -53 -74 -141 -103 -195 -28 -55 -79 -151
-112 -214 -33 -63 -78 -149 -100 -190 -126 -237 -174 -337 -231 -483 -53 -134
-136 -374 -152 -437 -2 -8 -17 -67 -34 -130 -16 -63 -32 -128 -35 -145 -3 -16
-9 -50 -14 -75 -20 -96 -28 -139 -35 -200 -3 -25 -8 -61 -11 -80 -30 -186 -36
-582 -11 -770 2 -19 7 -60 10 -90 17 -148 65 -359 123 -540 57 -175 113 -302
233 -527 18 -34 150 -234 159 -243 3 -3 24 -27 46 -55 21 -27 42 -52 45 -55 3
-3 30 -34 60 -70 163 -192 332 -357 515 -502 85 -67 260 -188 272 -188 5 0 14
-5 21 -12 30 -30 405 -223 472 -243 3 -1 16 -6 30 -12 139 -57 507 -163 616
-177 22 -3 55 -7 75 -11 38 -6 77 -11 174 -21 132 -14 568 -6 595 11 5 3 11 1
15 -5 4 -6 11 -8 16 -4 5 3 22 7 37 9 15 2 47 6 72 9 25 3 56 8 70 10 14 2 48
8 75 12 51 8 63 10 68 13 1 2 13 4 27 6 42 6 73 12 120 25 25 7 55 14 68 16
13 3 44 12 69 20 25 9 53 17 62 19 32 7 208 72 301 110 62 26 339 164 370 185
51 35 105 67 110 66 3 -1 16 8 28 20 12 11 35 27 50 35 15 8 33 20 41 27 8 7
26 21 40 30 150 96 465 385 631 578 46 54 112 132 128 153 65 84 126 167 163
221 24 36 49 68 54 72 7 5 7 8 0 8 -6 0 -5 3 1 8 26 17 172 266 258 442 32 63
63 126 71 140 7 14 13 27 13 30 1 6 4 13 60 155 35 87 56 153 67 205 2 8 9 38
15 65 6 28 14 61 16 75 33 198 34 205 41 305 17 250 3 586 -33 750 -4 16 -8
43 -9 60 -3 29 -10 65 -41 195 -27 110 -114 365 -163 475 -124 277 -238 512
-263 543 -6 6 -7 12 -3 12 4 0 2 6 -5 14 -6 8 -26 43 -44 78 -59 112 -81 153
-86 158 -3 3 -13 21 -23 40 -32 59 -52 95 -57 100 -3 3 -18 30 -34 60 -16 30
-34 62 -41 70 -7 8 -14 20 -16 25 -6 17 -152 256 -308 504 -100 161 -548 841
-560 851 -7 5 -140 200 -156 228 -5 9 -12 19 -15 22 -3 3 -28 37 -55 75 -27
39 -53 72 -57 73 -4 2 -8 9 -8 16 0 7 -10 25 -22 39 -13 14 -54 70 -93 126
-38 55 -73 101 -77 101 -5 0 -8 5 -8 12 0 12 -79 121 -92 126 -4 2 -8 8 -8 13
0 6 -21 38 -47 73 -27 35 -57 77 -68 92 -11 15 -30 40 -42 55 -13 15 -23 31
-23 37 0 6 -3 12 -8 14 -4 2 -28 32 -54 68 -26 36 -56 76 -67 90 -10 14 -44
59 -74 100 -31 41 -60 80 -64 85 -4 6 -55 73 -112 150 -58 77 -109 142 -113
143 -4 2 -8 10 -8 17 0 7 -3 15 -7 17 -5 2 -42 48 -83 103 -41 55 -77 102 -80
105 -3 3 -18 23 -35 45 -16 22 -33 45 -37 50 -21 26 -65 85 -83 110 -11 15
-28 36 -37 47 -10 10 -18 21 -18 24 0 9 -72 94 -80 94 -4 0 -19 -17 -33 -37z"/>
</g>
</svg>
